<svg xmlns="http://www.w3.org/2000/svg">
    <symbol id="shield" viewBox="0 0 24 24">
        <g>
            <path
                d="M11.25 2.07324C10.6437 2.18634 9.93159 2.43011 8.83772 2.80454L8.26491 3.00062C5.25832 4.02978 3.75503 4.54436 3.37752 5.08223C3.00825 5.60836 3.00018 7.14957 3 10.2093L11.25 7.45925V2.07324Z" />
            <path
                d="M11.25 9.04039L3 11.7904V11.9912C3 17.6293 7.23896 20.3653 9.89856 21.5271C10.4093 21.7502 10.7392 21.8943 11.25 21.9595V9.04039Z" />
            <path
                d="M12.75 21.9595V9.04039L21 11.7904V11.9912C21 17.6293 16.761 20.3653 14.1014 21.5271C13.5907 21.7502 13.2608 21.8943 12.75 21.9595Z" />
            <path
                d="M12.75 7.45925V2.07324C13.3563 2.18634 14.0684 2.43011 15.1623 2.80454L15.7351 3.00062C18.7417 4.02978 20.245 4.54436 20.6225 5.08223C20.9918 5.60836 20.9998 7.14957 21 10.2093L12.75 7.45925Z" />
        </g>
    </symbol>

    <symbol id="internet" viewBox="0 0 512 512">
        <g>
            <path
                d="M283.276,454.904c-4.739,3.858-9.502,6.888-14.295,9.177c-3.256,0.348-6.533,0.603-9.827,0.796v-38.201
                c-7.878-6.448-15.802-13.144-23.751-20.024v58.232c-3.293-0.2-6.571-0.456-9.818-0.804c-4.794-2.289-9.564-5.32-14.303-9.177
                c-15.447-12.572-29.905-33.794-40.992-61.108h50.486c-8.605-7.693-17.218-15.618-25.83-23.75h-32.959
                c-3.936-13.09-7.104-27.207-9.517-42.013c-9.378-9.703-18.486-19.429-27.331-29.139c1.987,25.281,6.061,49.264,12.13,71.152H76.602
                c-16.986-27.454-27.516-59.276-29.511-93.464h58.24c-6.881-7.948-13.577-15.873-20.017-23.751H47.092
                c0.819-14.009,3.147-27.586,6.68-40.66c-8.064-11.001-15.626-21.84-22.599-32.456c-10.368,26.333-16.127,54.986-16.127,84.999
                c0.007,128.262,103.963,232.21,232.226,232.218c30.005,0,58.658-5.759,84.982-16.119c-14.14-9.301-28.691-19.638-43.488-30.84
                C286.948,451.726,285.124,453.397,283.276,454.904z M105.456,406.53c-4.067-4.067-7.933-8.335-11.636-12.734h51.158
                c3.811,10.391,8.002,20.287,12.694,29.379c5.528,10.685,11.652,20.403,18.339,29.016
                C149.307,442.039,125.325,426.384,105.456,406.53z" />
            <path
                d="M78.442,105.348c5.072,9.084,10.839,18.548,17.187,28.296c3.17-3.68,6.386-7.314,9.826-10.754
                c19.908-19.893,43.945-35.58,70.71-45.731c-12.44,15.973-22.9,35.788-31.226,58.457H96.89c5.086,7.746,10.568,15.679,16.374,23.75
                h24.068c-2.188,7.878-4.067,16.074-5.76,24.454c6.363,8.18,13.02,16.452,19.947,24.787c2.498-17.458,6.007-34.042,10.585-49.242
                h73.3v93.464h-45.12c7.338,7.94,14.852,15.865,22.545,23.751h22.575v22.576c7.886,7.685,15.811,15.215,23.751,22.544v-45.12h87.751
                c-0.974,34.095-6.146,65.918-14.442,93.464h-17.388c11.412,9.192,22.676,17.844,33.694,25.876c0.271-0.727,0.587-1.392,0.858-2.126
                h51.112c-3.711,4.399-7.569,8.667-11.636,12.734c-3.433,3.432-7.036,6.695-10.716,9.864c9.734,6.34,19.181,12.092,28.243,17.164
                c44.849-42.336,72.883-102.301,72.883-168.844C479.505,136.451,375.542,32.488,247.272,32.48
                C180.728,32.488,120.779,60.514,78.442,105.348z M417.956,370.046h-60.73c7.84-28.259,12.587-59.88,13.507-93.464h76.734
                C445.472,310.77,434.942,342.591,417.956,370.046z M417.94,159.366c16.994,27.454,27.524,59.284,29.526,93.464h-76.811
                c-0.928-33.554-5.535-65.222-13.375-93.464H417.94z M389.094,122.89c4.067,4.067,7.925,8.327,11.628,12.726H349.58
                c-3.811-10.383-8.01-20.279-12.695-29.371c-5.528-10.677-11.651-20.395-18.331-29.016C345.25,87.38,369.226,103.044,389.094,122.89
                z M259.154,64.534c3.301,0.201,6.58,0.456,9.834,0.804c4.794,2.281,9.548,5.312,14.288,9.169
                c15.447,12.564,29.897,33.794,40.984,61.108h-65.106V64.534z M259.154,159.366h73.409c8.296,27.539,13.437,59.4,14.419,93.464
                h-87.828V159.366z M211.282,74.507c4.739-3.858,9.494-6.888,14.288-9.177c3.254-0.348,6.533-0.603,9.833-0.804v71.09h-64.982
                c2.621-6.472,5.374-12.718,8.35-18.47C188.312,98.652,199.538,84.102,211.282,74.507z" />
            <path
                d="M503.055,424.249c-4.809-12.966-11.489-26.982-19.668-41.842c-5.59,11.149-11.929,21.872-18.981,32.062
                c3.58,7.399,6.58,14.357,8.953,20.774c4.832,12.95,7.012,23.75,6.973,30.972c0,3.425-0.456,5.999-1.052,7.732
                c-0.602,1.739-1.236,2.644-1.963,3.394c-0.735,0.711-1.632,1.337-3.379,1.948c-1.724,0.587-4.298,1.043-7.724,1.043
                c-6.819,0.031-16.838-1.894-28.83-6.185c-12.014-4.26-26.031-10.778-41.408-19.328c-52.72-29.302-121.196-82.509-188.714-150.073
                C139.698,237.229,86.491,168.752,57.181,116.024c-8.55-15.378-15.06-29.387-19.328-41.402c-4.283-11.991-6.216-22.01-6.185-28.83
                c0-3.433,0.464-6.007,1.052-7.724c0.603-1.747,1.23-2.636,1.948-3.378c0.758-0.734,1.654-1.369,3.402-1.971
                c1.724-0.588,4.298-1.052,7.739-1.052c7.213-0.038,18.014,2.142,30.941,6.959c6.44,2.381,13.43,5.396,20.868,8.983
                c10.19-7.051,20.889-13.39,32.046-18.98c-14.891-8.204-28.938-14.891-41.927-19.7c-15.2-5.59-29-8.884-41.927-8.93
                C39.662,0.008,33.662,0.781,27.91,2.722c-5.736,1.932-11.211,5.133-15.64,9.586c-4.438,4.414-7.631,9.881-9.549,15.61
                C0.781,33.662,0.008,39.654,0,45.793c0.039,12.216,2.984,25.196,8.017,39.43c5.056,14.218,12.3,29.65,21.493,46.195
                c31.497,56.523,86.112,126.438,155.361,195.718C254.152,396.386,324.067,451,380.582,482.498
                c16.553,9.192,31.985,16.436,46.203,21.493c14.233,5.026,27.214,7.971,39.429,8.01c6.139,0,12.131-0.781,17.876-2.714
                c5.721-1.924,11.187-5.11,15.609-9.548c4.454-4.438,7.654-9.912,9.58-15.633c1.94-5.752,2.714-11.752,2.721-17.89
                C511.954,453.273,508.66,439.465,503.055,424.249z" />
        </g>
    </symbol>

    <symbol id="speed" viewBox="0 0 512 512">
        <g>
            <path
                d="M259.27,127.92l-79.66-79.66c-0.3-0.3-0.61-0.57-0.93-0.84c-0.07-0.06-0.14-0.13-0.22-0.19     c-0.3-0.25-0.61-0.47-0.93-0.69c-0.11-0.08-0.21-0.16-0.33-0.24c-0.31-0.21-0.63-0.39-0.95-0.58c-0.13-0.07-0.25-0.16-0.39-0.23     c-0.31-0.17-0.63-0.31-0.95-0.46c-0.16-0.07-0.31-0.15-0.47-0.22c-0.31-0.13-0.62-0.23-0.93-0.34c-0.18-0.06-0.36-0.13-0.55-0.19     c-0.32-0.1-0.64-0.17-0.96-0.25c-0.19-0.04-0.37-0.1-0.56-0.14c-0.38-0.08-0.76-0.13-1.14-0.17c-0.14-0.02-0.27-0.05-0.41-0.06     c-1.06-0.11-2.13-0.11-3.19,0c-0.19,0.02-0.37,0.06-0.56,0.08c-0.33,0.04-0.66,0.09-0.98,0.15c-0.25,0.05-0.49,0.12-0.73,0.18     c-0.26,0.06-0.52,0.12-0.78,0.2c-0.25,0.08-0.5,0.17-0.75,0.26c-0.24,0.09-0.49,0.17-0.73,0.27c-0.24,0.1-0.48,0.22-0.71,0.33     c-0.23,0.11-0.47,0.21-0.7,0.34c-0.24,0.13-0.47,0.28-0.71,0.42c-0.21,0.13-0.42,0.24-0.63,0.38c-0.29,0.19-0.56,0.4-0.83,0.61     c-0.14,0.11-0.29,0.2-0.42,0.32c-0.42,0.35-0.83,0.72-1.22,1.1l-79.63,79.63c-6.25,6.25-6.25,16.38,0,22.63     c6.25,6.25,16.38,6.25,22.63,0l52.34-52.34v354.23c0,8.84,7.16,16,16,16s16-7.16,16-16V98.19l52.35,52.35     c3.12,3.12,7.22,4.69,11.31,4.69s8.19-1.56,11.31-4.69C265.52,144.29,265.52,134.16,259.27,127.92z" />
            <path
                d="M434.67,361.46c-6.25-6.25-16.38-6.25-22.63,0l-52.35,52.35V59.57c0-8.84-7.16-16-16-16s-16,7.16-16,16     V413.8l-52.34-52.34c-6.25-6.25-16.38-6.25-22.63,0c-6.25,6.25-6.25,16.38,0,22.63l79.63,79.63c0.39,0.39,0.79,0.76,1.22,1.1     c0.14,0.11,0.28,0.21,0.42,0.31c0.27,0.21,0.55,0.42,0.83,0.61c0.2,0.14,0.41,0.25,0.62,0.38c0.24,0.14,0.47,0.29,0.72,0.42     c0.23,0.12,0.46,0.22,0.69,0.33c0.24,0.11,0.48,0.23,0.72,0.34c0.24,0.1,0.48,0.18,0.72,0.26c0.25,0.09,0.5,0.19,0.76,0.26     c0.25,0.08,0.51,0.13,0.76,0.2c0.25,0.06,0.5,0.13,0.75,0.18c0.32,0.06,0.63,0.1,0.95,0.15c0.2,0.03,0.39,0.07,0.59,0.09     c0.53,0.05,1.06,0.08,1.59,0.08c0.53,0,1.07-0.03,1.6-0.08c0.15-0.01,0.3-0.05,0.44-0.06c0.37-0.05,0.74-0.1,1.11-0.17     c0.2-0.04,0.39-0.1,0.58-0.14c0.31-0.08,0.63-0.15,0.94-0.24c0.19-0.06,0.37-0.13,0.56-0.2c0.31-0.11,0.62-0.21,0.92-0.34     c0.16-0.07,0.32-0.15,0.48-0.22c0.32-0.14,0.63-0.29,0.94-0.45c0.13-0.07,0.26-0.16,0.39-0.23c0.32-0.18,0.64-0.37,0.95-0.58     c0.11-0.08,0.22-0.16,0.33-0.24c0.31-0.22,0.63-0.44,0.92-0.69c0.08-0.06,0.14-0.13,0.22-0.19c0.32-0.27,0.63-0.54,0.93-0.84     l79.66-79.66C440.92,377.84,440.92,367.71,434.67,361.46z" />
        </g>
    </symbol>

    <symbol id="devices" viewBox="0 0 512 512">
        <g>
            <g>
                <g>
                    <rect
                        x="198.531"
                        y="203.755"
                        width="292.571"
                        height="177.633" />
                </g>
            </g>
            <g>
                <g>
                    <path
                        d="M177.633,412.735v10.449c0,17.312,14.035,31.347,31.347,31.347h271.673c17.312,0,31.347-14.035,31.347-31.347v-10.449H177.633z" />
                </g>
            </g>
            <g>
                <g>
                    <rect y="266.449" width="104.49" height="188.082" />
                </g>
            </g>
            <g>
                <g>
                    <polygon
                        points="52.245,57.469 52.245,235.102 135.837,235.102 135.837,297.796 167.184,297.796 167.184,172.408 470.204,172.408 470.204,57.469" />
                </g>
            </g>
            <g>
                <g>
                    <rect
                        x="135.837"
                        y="329.143"
                        width="31.347"
                        height="52.245" />
                </g>
            </g>
        </g>
    </symbol>

    <symbol id="connection" viewBox="0 0 1024 1024">
        <g>
            <path
                d="M469.065 346.376L660.87 154.571c55.91-55.91 146.552-55.91 202.472.001 55.909 55.909 55.909 146.55-.001 202.46L663.395 556.978c-55.909 55.9-146.552 55.9-202.462-.001-19.006-19.006-31.981-42.453-38.055-68.014-2.615-11.004-13.655-17.806-24.66-15.191s-17.806 13.655-15.191 24.66c7.815 32.89 24.532 63.099 48.943 87.51 71.907 71.895 188.48 71.895 260.386.001l199.947-199.947c71.906-71.906 71.906-188.481 0-260.387-71.917-71.906-188.492-71.906-260.397 0L440.101 317.414c-7.998 7.998-7.998 20.965 0 28.963s20.965 7.998 28.963 0z" />
            <path
                d="M548.841 673.748L357.036 865.553c-55.91 55.91-146.552 55.91-202.472-.001-55.899-55.908-55.899-146.551.002-202.461l199.945-199.945c55.909-55.9 146.552-55.9 202.462.001 19.006 19.006 31.981 42.453 38.055 68.014 2.615 11.004 13.655 17.806 24.66 15.191s17.806-13.655 15.191-24.66c-7.815-32.89-24.532-63.099-48.943-87.51-71.907-71.895-188.48-71.895-260.386-.001L125.603 634.128c-71.895 71.907-71.895 188.48-.001 260.386 71.918 71.907 188.493 71.907 260.398.001L577.805 702.71c7.998-7.998 7.998-20.965 0-28.963s-20.965-7.998-28.963 0z" />
        </g>
    </symbol>

    <symbol id="use" viewBox="0 0 70 70">
        <g>
            <path
                d="M28.376,7.062l4.247,0.177c0,0,1.716,0.081,2.114,2.334s2.98,17.876,2.98,17.876l13.809,1.539
                c4.07,0,7.056,3.285,7.056,7.336v20.179c0,4.051-2.674,6.08-6.742,6.08H33.578c-4.07,0-20.369-11.316-21.369-14.303
                c-0.361-1.08-0.592-1.718-0.739-2.489c-0.261-1.363-0.261-2.019-0.261-2.019l2.316,0.386l12.684,1.725
                c0,0,0.588-34.573,0.588-36.657S28.376,7.062,28.376,7.062 M28.376,3.062c-0.084,0-0.168,0.003-0.252,0.008
                c-2.583,0.163-5.328,2.383-5.328,6.176c0,1.436-0.301,19.665-0.511,32.119l-8.234-1.092l-2.315-0.309
                c-0.176-0.023-0.352-0.035-0.527-0.035c-0.964,0-1.902,0.35-2.636,0.992c-0.867,0.76-1.364,1.855-1.364,3.008c0,0.199,0.016,1.275,0.332,2.928c0.208,1.088,0.502,2.205,0.875,3.318c0.795,2.375,4.497,5.305,11.003,9.947
                c6.593,4.703,11.356,6.461,14.159,6.461h18.263c6.268,0,10.742-3.83,10.742-10.08V36.324c0-6.171-4.657-11.205-10.815-11.334
                l-10.755-1.188c-0.773-4.665-2.121-13.267-2.414-14.925c-0.656-3.711-3.461-5.521-5.826-5.633l-4.249-0.178
                C28.469,3.063,28.431,3.062,28.376,3.062L28.376,3.062z" />
            <path
                d="M54.583,55.354c-0.553,0-1-0.447-1-1V38.706c0-2.356-1.458-4.132-3.808-4.132l-4.315-0.402
                c-0.549-0.05-0.875-0.537-0.824-1.087c0.05-0.55,0.565-1.451,1.126-1.403l4.419-0.099c0.002,0,0.004,0,0.006,0
                c3.34,0,5.396,3.687,5.396,7.123v15.648C55.583,54.907,55.134,55.354,54.583,55.354z" />
            <path
                d="M42.298,33.558c-0.035,0-0.072-0.002-0.107-0.006l-2.176-0.232c-0.549-0.059-0.947-0.551-0.889-1.101
                c0.059-0.549,0.555-0.941,1.102-0.888l2.176,0.232c0.549,0.059,0.945,0.551,0.887,1.101
                C43.235,33.177,42.802,33.558,42.298,33.558z" />
        </g>
    </symbol>

    <symbol id="coin" viewBox="0 0 24 24">
        <g>
            <path
                d="M12 10c3.976 0 8-1.374 8-4s-4.024-4-8-4-8 1.374-8 4 4.024 4 8 4z" />
            <path
                d="M4 10c0 2.626 4.024 4 8 4s8-1.374 8-4V8c0 2.626-4.024 4-8 4s-8-1.374-8-4v2z" />
            <path
                d="M4 14c0 2.626 4.024 4 8 4s8-1.374 8-4v-2c0 2.626-4.024 4-8 4s-8-1.374-8-4v2z" />
            <path
                d="M4 18c0 2.626 4.024 4 8 4s8-1.374 8-4v-2c0 2.626-4.024 4-8 4s-8-1.374-8-4v2z" />
        </g>
    </symbol>

    <symbol id="forever" viewBox="0 -64.5 256 256">
        <g>
            <path
                d="M0,63.2098765 C0,45.8856882 6.20393233,31.0196616 18.611797,18.611797 C31.0196616,6.20393233 45.8856882,0 63.2098765,0 C80.5340649,0 95.4000914,6.20393233 107.807956,18.611797 L128.175583,37.9259259 L148.54321,18.260631 C160.716964,6.086877 175.465935,0 192.790123,0 C209.880201,0 224.6877,6.20393233 237.21262,18.611797 C249.73754,31.0196616 256,45.8856882 256,63.2098765 C256,80.5340649 249.73754,95.4000914 237.21262,107.807956 C224.6877,120.215821 209.880201,126.419753 192.790123,126.419753 C175.465935,126.419753 160.599909,120.215821 148.192044,107.807956 L128.175583,88.4938272 L107.45679,108.159122 C95.2830361,120.332876 80.5340649,126.419753 63.2098765,126.419753 C45.8856882,126.419753 31.0196616,120.215821 18.611797,107.807956 C6.20393233,95.4000914 0,80.5340649 0,63.2098765 L0,63.2098765 Z M63.2098765,36.521262 C55.9524463,36.521262 49.6899863,39.1550069 44.4224966,44.4224966 C39.1550069,49.6899863 36.521262,55.9524463 36.521262,63.2098765 C36.521262,70.7014175 39.0964792,77.0224051 44.2469136,82.1728395 C49.397348,87.3232739 55.7183356,89.8984911 63.2098765,89.8984911 C70.7014175,89.8984911 77.0224051,87.3232739 82.1728395,82.1728395 L101.486968,63.2098765 L82.1728395,44.5980796 C76.7882945,39.2135345 70.4673068,36.521262 63.2098765,36.521262 L63.2098765,36.521262 Z M211.753086,82.1728395 C216.903521,77.0224051 219.478738,70.7014175 219.478738,63.2098765 C219.478738,55.7183356 216.903521,49.397348 211.753086,44.2469136 C206.602652,39.0964792 200.340192,36.521262 192.965706,36.521262 C185.591221,36.521262 179.328761,39.0964792 174.178326,44.2469136 L154.513032,63.2098765 L173.82716,81.8216735 C178.977595,86.9721079 185.298583,89.6058528 192.790123,89.7229081 C200.281664,89.8399634 206.602652,87.3232739 211.753086,82.1728395 L211.753086,82.1728395 Z" />
        </g>
    </symbol>

    <symbol id="check" viewBox="0 0 36 36">
        <g>
            <path
                d="M34.459 1.375a2.999 2.999 0 0 0-4.149.884L13.5 28.17l-8.198-7.58a2.999 2.999 0 1 0-4.073 4.405l10.764 9.952s.309.266.452.359a2.999 2.999 0 0 0 4.15-.884L35.343 5.524a2.999 2.999 0 0 0-.884-4.149z" />
        </g>
    </symbol>
</svg>